cover 
http://img826.imageshack.us/img826/2189/sexydisplay.jpg

At an exclusive university campus dead bodies begin to appear all over the place. The police haven't a clue to who is responsible for this large-scale butchery. Nobody suspects young, innocent looking Barbara, whose sole obsession seems to be keeping up with latest fashion. Behind this trivial façade, however, is a deadly and ruthless serial killer. She is the perfect cross between Paris Hilton and Hannibal Lecter, the personality of a cannibalistic psychopath with a wardrobe to die for...because it always ends up soaked in the blood of her victims. 





Actors: Ángel de Andrés López, Juan Díaz, Pablo Pinedo, Macarena Gómez, Javier Ambrossi
Directors: Miguel Martí
Format: Import,Subtitled, Widescreen
Language: Spanish
Subtitles: English Hard Subbed

Codec ID : XVID
Codec ID/Hint : XviD
Duration : 1h 25mn
Bit rate : 1 221 Kbps
Width : 720 pixels
Height : 436 pixels
Display aspect ratio : 2.35:1
Frame rate : 25.000 fps
Resolution : 24 bits
Colorimetry : 4:2:0
Scan type : Progressive
Bits/(Pixel*Frame) : 0.156
Stream size : 749 MiB (88%)
Writing library : XviD 1.1.2 (UTC 2006-11-01)

Audio
ID : 1
Format : MPEG Audio
Format version : Version 1
Format profile : Layer 3
Format settings, Mode : Joint stereo / MS Stereo
Codec ID : 55
Codec ID/Hint : MP3
Duration : 1h 25mn
Bit rate mode : Constant
Bit rate : 160 Kbps
Channel(s) : 2 channels
Sampling rate : 48.0 KHz
Resolution : 16 bits
Stream size : 98.2 MiB (11%)
Alignment : Split accross interleaves
Interleave, duration : 24 ms (0.60 video frame)

screens 
http://img266.imageshack.us/img266/9562/vlcsnap2010102621h06m46.png 
http://img294.imageshack.us/img294/3130/vlcsnap2010102621h09m00.png 
http://img526.imageshack.us/img526/5662/vlcsnap2010102621h10m29.png 
http://img229.imageshack.us/img229/2199/vlcsnap2010102621h12m58.png 
http://img836.imageshack.us/img836/2809/vlcsnap2010102621h18m11.png 
http://img836.imageshack.us/img836/2540/vlcsnap2010102621h21m24.png 
http://img838.imageshack.us/img838/6976/vlcsnap2010102621h25m19.png 
http://img176.imageshack.us/img176/8822/vlcsnap2010102621h26m48.png 
http://img190.imageshack.us/img190/3839/vlcsnap2010102621h32m29.png